<mxfile host="app.diagrams.net" modified="2023-11-24T11:26:23.800Z" agent="Mozilla/5.0 (Windows NT 10.0; Win64; x64) AppleWebKit/537.36 (KHTML, like Gecko) Chrome/119.0.0.0 Safari/537.36" version="21.6.8" etag="m16XzW8PzbcBd47fos9t" type="github">
  <diagram name="Lapa-1" id="BvDR4TQPLg42c8kU46B3">
    <mxGraphModel>
      <root>
        <mxCell id="0" />
        <mxCell id="1" parent="0" />
      </root>
    </mxGraphModel>
  </diagram>
</mxfile>
